<svg id="frappe-symbols" aria-hidden="true" style="position: absolute; width: 0; height: 0; overflow: hidden;" class="d-block" xmlns="http://www.w3.org/2000/svg">
	<symbol viewBox="0 0 24 24" fill="none" xmlns="http://www.w3.org/2000/svg" id="icon-healthcare">
		<path d="M7.606 3.799L8 4.302l.394-.503.106-.14c.048-.065.08-.108.129-.159a3.284 3.284 0 0 1 4.72 0c.424.434.655 1.245.65 2.278-.006 1.578-.685 2.931-1.728 4.159-1.05 1.234-2.439 2.308-3.814 3.328a.763.763 0 0 1-.914 0c-1.375-1.02-2.764-2.094-3.814-3.328C2.686 8.709 2.007 7.357 2 5.778c-.004-1.033.227-1.844.651-2.278a3.284 3.284 0 0 1 4.72 0c.05.05.081.094.129.158.028.038.061.083.106.14z"
		stroke="var(--icon-stroke)"></path>
	</symbol>
</svg>
