<?xml version="1.0" encoding="UTF-8"?>
<svg xmlns="http://www.w3.org/2000/svg" xmlns:xlink="http://www.w3.org/1999/xlink" width="1024px" height="846px" viewBox="0 0 1025 846" version="1.1">
<g id="surface1">
<path style=" stroke:none;fill-rule:nonzero;fill:rgb(0%,0%,0%);fill-opacity:1;" d="M 726.574219 59.285156 C 724.707031 61.152344 723.371094 68.097656 723.371094 75.308594 C 723.371094 87.589844 727.644531 93.464844 736.453125 93.464844 C 742.058594 93.464844 747.394531 84.652344 747.394531 74.773438 C 747.394531 59.550781 735.382812 50.472656 726.574219 59.285156 Z M 726.574219 59.285156 "/>
<path style=" stroke:none;fill-rule:nonzero;fill:rgb(0%,0%,0%);fill-opacity:1;" d="M 428.417969 73.703125 C 278.136719 99.074219 159.890625 213.101562 127.589844 363.984375 C 120.652344 397.097656 119.316406 469.734375 125.1875 502.046875 C 130.261719 530.351562 145.476562 577.085938 158.019531 602.1875 C 183.378906 652.925781 228.222656 706.601562 272 737.847656 C 444.167969 862.023438 681.464844 818.496094 797.3125 641.441406 C 831.746094 589.101562 852.832031 526.878906 856.035156 467.328125 L 857.371094 441.960938 L 846.160156 460.652344 C 806.921875 526.613281 747.394531 570.410156 669.1875 590.703125 C 636.886719 599.25 576.828125 599.25 543.464844 590.4375 C 489.011719 576.285156 447.371094 552.515625 409.734375 514.0625 C 301.894531 403.773438 305.632812 222.714844 418.273438 117.5 C 433.488281 103.347656 446.035156 94 479.402344 72.902344 C 486.609375 68.363281 456.710938 68.898438 428.417969 73.703125 Z M 428.417969 73.703125 "/>
<path style=" stroke:none;fill-rule:nonzero;fill:rgb(0%,0%,0%);fill-opacity:1;" d="M 589.640625 99.074219 C 585.371094 107.085938 590.441406 117.5 598.71875 117.5 C 606.457031 117.5 611.261719 112.960938 611.261719 105.484375 C 611.261719 93.464844 595.246094 88.660156 589.640625 99.074219 Z M 589.640625 99.074219 "/>
<path style=" stroke:none;fill-rule:nonzero;fill:rgb(0%,0%,0%);fill-opacity:1;" d="M 689.207031 96.671875 C 687.335938 98.539062 686.003906 102.277344 686.003906 105.484375 C 686.003906 114.027344 691.339844 117.5 703.621094 117.5 C 715.097656 117.5 723.371094 112.425781 723.371094 105.484375 C 723.371094 95.066406 697.480469 88.390625 689.207031 96.671875 Z M 689.207031 96.671875 "/>
<path style=" stroke:none;fill-rule:nonzero;fill:rgb(0%,0%,0%);fill-opacity:1;" d="M 750.597656 96.671875 C 748.730469 98.539062 747.394531 102.277344 747.394531 105.484375 C 747.394531 114.027344 752.734375 117.5 765.011719 117.5 C 776.492188 117.5 784.765625 112.425781 784.765625 105.484375 C 784.765625 95.066406 758.875 88.390625 750.597656 96.671875 Z M 750.597656 96.671875 "/>
<path style=" stroke:none;fill-rule:nonzero;fill:rgb(0%,0%,0%);fill-opacity:1;" d="M 728.175781 120.4375 C 722.570312 123.640625 721.503906 146.609375 726.574219 151.683594 C 735.382812 160.496094 747.394531 151.414062 747.394531 136.191406 C 747.394531 120.972656 738.855469 114.027344 728.175781 120.4375 Z M 728.175781 120.4375 "/>
<path style=" stroke:none;fill-rule:nonzero;fill:rgb(0%,0%,0%);fill-opacity:1;" d="M 825.339844 120.703125 C 820.800781 125.246094 821.335938 138.0625 826.40625 139.933594 C 834.949219 143.136719 841.085938 141.535156 844.023438 134.859375 C 846.425781 129.25 846.160156 127.378906 842.15625 122.839844 C 836.816406 116.699219 830.144531 115.898438 825.339844 120.703125 Z M 825.339844 120.703125 "/>
<path style=" stroke:none;fill-rule:nonzero;fill:rgb(0%,0%,0%);fill-opacity:1;" d="M 511.164062 133.523438 C 499.6875 138.0625 488.476562 155.6875 488.476562 168.773438 C 488.476562 177.851562 496.75 192.003906 504.757812 196.8125 C 509.03125 199.484375 512.5 202.152344 512.5 202.953125 C 512.5 203.753906 500.222656 210.699219 485.007812 218.710938 C 434.289062 245.683594 408.664062 267.3125 396.921875 293.214844 C 386.242188 317.25 391.316406 354.902344 408.933594 380.808594 L 415.070312 389.886719 L 636.621094 389.886719 L 642.761719 380.808594 C 660.378906 354.902344 665.449219 317.25 654.773438 293.214844 C 643.027344 267.3125 617.402344 245.683594 566.6875 218.710938 C 551.472656 210.699219 539.191406 203.753906 539.191406 202.953125 C 539.191406 202.152344 542.664062 199.484375 546.933594 196.8125 C 554.941406 192.003906 563.214844 177.851562 563.214844 168.773438 C 563.214844 157.824219 548.800781 150.613281 542.394531 158.359375 C 540.792969 159.960938 538.925781 164.765625 537.859375 168.773438 C 534.921875 180.523438 517.304688 182.125 514.367188 170.910156 C 512.765625 164.5 519.441406 154.886719 525.847656 154.886719 C 536.257812 154.886719 541.328125 138.863281 532.785156 132.988281 C 529.050781 130.316406 517.839844 130.585938 511.164062 133.523438 Z M 511.164062 133.523438 "/>
<path style=" stroke:none;fill-rule:nonzero;fill:rgb(0%,0%,0%);fill-opacity:1;" d="M 811.992188 232.863281 C 810.125 234.734375 808.789062 241.140625 808.789062 247.285156 C 808.789062 259.835938 816.261719 268.113281 824.539062 264.910156 C 830.945312 262.503906 832.8125 258.765625 832.8125 246.75 C 832.8125 234.734375 829.074219 229.660156 820.800781 229.660156 C 817.597656 229.660156 813.859375 230.996094 811.992188 232.863281 Z M 811.992188 232.863281 "/>
<path style=" stroke:none;fill-rule:nonzero;fill:rgb(0%,0%,0%);fill-opacity:1;" d="M 774.621094 270.25 C 766.082031 278.796875 775.691406 291.078125 790.90625 291.078125 C 801.046875 291.078125 808.789062 285.472656 808.789062 277.996094 C 808.789062 270.515625 803.183594 267.046875 790.105469 267.046875 C 783.429688 267.046875 776.492188 268.378906 774.621094 270.25 Z M 774.621094 270.25 "/>
<path style=" stroke:none;fill-rule:nonzero;fill:rgb(0%,0%,0%);fill-opacity:1;" d="M 834.949219 273.722656 C 832.546875 279.328125 832.8125 281.199219 836.816406 285.738281 C 846.425781 296.152344 870.183594 290.8125 870.183594 277.996094 C 870.183594 270.25 864.308594 267.046875 850.964844 267.046875 C 839.753906 267.046875 837.617188 267.847656 834.949219 273.722656 Z M 834.949219 273.722656 "/>
<path style=" stroke:none;fill-rule:nonzero;fill:rgb(0%,0%,0%);fill-opacity:1;" d="M 811.992188 294.285156 C 806.652344 299.625 807.988281 318.851562 814.128906 324.460938 C 818.664062 328.464844 820.535156 328.734375 826.140625 326.328125 C 832.011719 323.660156 832.8125 321.523438 832.8125 310.308594 C 832.8125 296.421875 829.609375 291.078125 820.800781 291.078125 C 817.597656 291.078125 813.859375 292.414062 811.992188 294.285156 Z M 811.992188 294.285156 "/>
<path style=" stroke:none;fill-rule:nonzero;fill:rgb(0%,0%,0%);fill-opacity:1;" d="M 735.382812 361.046875 C 710.828125 378.671875 706.023438 389.351562 715.363281 404.574219 L 721.238281 413.921875 L 772.753906 413.921875 L 778.894531 404.574219 C 789.304688 389.351562 782.628906 375.464844 758.074219 360.777344 C 746.59375 353.835938 745.261719 353.835938 735.382812 361.046875 Z M 735.382812 361.046875 "/>
<path style=" stroke:none;fill-rule:nonzero;fill:rgb(0%,0%,0%);fill-opacity:1;" d="M 416.40625 450.503906 L 416.40625 487.089844 L 432.6875 502.578125 C 449.773438 518.871094 470.058594 534.089844 474.863281 534.089844 C 476.730469 534.089844 477.800781 527.148438 477.800781 516.734375 C 477.800781 497.503906 481.269531 488.425781 493.015625 477.746094 C 504.226562 467.328125 510.632812 464.660156 525.847656 464.660156 C 543.464844 464.660156 557.34375 472.136719 566.6875 486.824219 C 573.625 497.238281 573.894531 499.375 573.894531 534.359375 L 573.894531 570.941406 L 593.378906 572.8125 C 604.054688 573.878906 618.203125 573.613281 624.609375 572.277344 L 636.621094 569.875 L 636.621094 415.253906 L 526.648438 414.453125 L 416.40625 413.921875 Z M 416.40625 450.503906 "/>
<path style=" stroke:none;fill-rule:nonzero;fill:rgb(0%,0%,0%);fill-opacity:1;" d="M 723.371094 491.363281 L 723.371094 545.039062 L 730.847656 541.035156 C 734.851562 538.898438 745.527344 531.6875 754.871094 525.011719 L 771.417969 512.726562 L 771.417969 437.953125 L 723.371094 437.953125 Z M 723.371094 491.363281 "/>
<path style=" stroke:none;fill-rule:nonzero;fill:rgb(0%,0%,0%);fill-opacity:1;" d="M 508.761719 495.902344 C 501.824219 502.578125 501.554688 503.914062 502.355469 527.148438 L 503.15625 551.449219 L 523.175781 558.660156 C 534.121094 562.664062 544.796875 565.871094 546.667969 565.871094 C 549.070312 566.136719 549.871094 558.125 549.871094 534.359375 C 549.871094 503.914062 549.601562 502.578125 542.929688 495.636719 C 533.054688 486.023438 518.640625 486.023438 508.761719 495.902344 Z M 508.761719 495.902344 "/>
</g>
</svg>
