<svg xmlns="http://www.w3.org/2000/svg" version="1.0" width="384.000000pt" height="317.000000pt" viewBox="0 0 384.000000 317.000000" preserveAspectRatio="xMidYMid meet">

<g transform="translate(0.000000,317.000000) scale(0.100000,-0.100000)" fill="#d4d4d4" stroke="none">
<path d="M2722 2948 c-7 -7 -12 -33 -12 -60 0 -46 16 -68 49 -68 21 0 41 33 41 70 0 57 -45 91 -78 58z" fill="#d4d4d4"/>
<path d="M1605 2894 c-563 -95 -1006 -522 -1127 -1087 -26 -124 -31 -396 -9 -517 19 -106 76 -281 123 -375 95 -190 263 -391 427 -508 645 -465 1534 -302 1968 361 129 196 208 429 220 652 l5 95 -42 -70 c-147 -247 -370 -411 -663 -487 -121 -32 -346 -32 -471 1 -204 53 -360 142 -501 286 -404 413 -390 1091 32 1485 57 53 104 88 229 167 27 17 -85 15 -191 -3z" fill="#d4d4d4"/>
<path d="M2209 2799 c-16 -30 3 -69 34 -69 29 0 47 17 47 45 0 45 -60 63 -81 24z" fill="#d4d4d4"/>
<path d="M2582 2808 c-7 -7 -12 -21 -12 -33 0 -32 20 -45 66 -45 43 0 74 19 74 45 0 39 -97 64 -128 33z" fill="#d4d4d4"/>
<path d="M2812 2808 c-7 -7 -12 -21 -12 -33 0 -32 20 -45 66 -45 43 0 74 19 74 45 0 39 -97 64 -128 33z" fill="#d4d4d4"/>
<path d="M2728 2719 c-21 -12 -25 -98 -6 -117 33 -33 78 1 78 58 0 57 -32 83 -72 59z" fill="#d4d4d4"/>
<path d="M3092 2718 c-17 -17 -15 -65 4 -72 32 -12 55 -6 66 19 9 21 8 28 -7 45 -20 23 -45 26 -63 8z" fill="#d4d4d4"/>
<path d="M1915 2670 c-43 -17 -85 -83 -85 -132 0 -34 31 -87 61 -105 16 -10 29 -20 29 -23 0 -3 -46 -29 -103 -59 -190 -101 -286 -182 -330 -279 -40 -90 -21 -231 45 -328 l23 -34 415 0 415 0 23 34 c66 97 85 238 45 328 -44 97 -140 178 -330 279 -57 30 -103 56 -103 59 0 3 13 13 29 23 30 18 61 71 61 105 0 41 -54 68 -78 39 -6 -6 -13 -24 -17 -39 -11 -44 -77 -50 -88 -8 -6 24 19 60 43 60 39 0 58 60 26 82 -14 10 -56 9 -81 -2z" fill="#d4d4d4"/>
<path d="M3042 2298 c-7 -7 -12 -31 -12 -54 0 -47 28 -78 59 -66 24 9 31 23 31 68 0 45 -14 64 -45 64 -12 0 -26 -5 -33 -12z" fill="#d4d4d4"/>
<path d="M2902 2158 c-32 -32 4 -78 61 -78 38 0 67 21 67 49 0 28 -21 41 -70 41 -25 0 -51 -5 -58 -12z" fill="#d4d4d4"/>
<path d="M3128 2145 c-9 -21 -8 -28 7 -45 36 -39 125 -19 125 29 0 29 -22 41 -72 41 -42 0 -50 -3 -60 -25z" fill="#d4d4d4"/>
<path d="M3042 2068 c-20 -20 -15 -92 8 -113 17 -15 24 -16 45 -7 22 10 25 18 25 60 0 52 -12 72 -45 72 -12 0 -26 -5 -33 -12z" fill="#d4d4d4"/>
<path d="M2755 1818 c-92 -66 -110 -106 -75 -163 l22 -35 96 0 97 0 23 35 c39 57 14 109 -78 164 -43 26 -48 26 -85 -1z" fill="#d4d4d4"/>
<path d="M1560 1483 l0 -137 61 -58 c64 -61 140 -118 158 -118 7 0 11 26 11 65 0 72 13 106 57 146 42 39 66 49 123 49 66 0 118 -28 153 -83 26 -39 27 -47 27 -178 l0 -137 73 -7 c40 -4 93 -3 117 2 l45 9 0 289 0 290 -412 3 -413 2 0 -137z" fill="#d4d4d4"/>
<path d="M2710 1330 l0 -201 28 15 c15 8 55 35 90 60 l62 46 0 140 0 140 -90 0 -90 0 0 -200z" fill="#d4d4d4"/>
<path d="M1906 1313 c-26 -25 -27 -30 -24 -117 l3 -91 75 -27 c41 -15 81 -27 88 -27 9 -1 12 29 12 118 0 114 -1 119 -26 145 -37 36 -91 36 -128 -1z" fill="#d4d4d4"/>
</g>
</svg>